<svg version="1.1" id="Layer_1" xmlns="http://www.w3.org/2000/svg" xmlns:xlink="http://www.w3.org/1999/xlink" x="0px" y="0px"
	 width="100%" viewBox="0 0 300 168" enable-background="new 0 0 300 168" xml:space="preserve">
<path fill="#000000" opacity="1.000000" stroke="none" 
	d="
M223.000000,169.000000 
	C148.666672,169.000000 74.833351,169.000000 1.000020,169.000000 
	C1.000013,113.000015 1.000013,57.000031 1.000007,1.000035 
	C100.999969,1.000023 200.999939,1.000023 300.999939,1.000012 
	C300.999939,56.999966 300.999939,112.999931 300.999969,168.999939 
	C275.166656,169.000000 249.333328,169.000000 223.000000,169.000000 
M129.821091,136.978378 
	C147.735046,146.448166 166.042282,146.893402 183.981369,137.804398 
	C205.219330,127.044022 219.470703,101.465233 215.196716,76.218239 
	C212.744370,61.731915 207.194717,49.219372 197.149109,38.890236 
	C180.693848,21.970581 160.365417,16.128016 137.290375,20.063196 
	C108.037369,25.051952 85.211708,48.564209 82.288292,79.464523 
	C80.133812,102.237221 87.783577,122.086197 105.735039,137.162354 
	C121.768906,150.628052 140.281998,154.737411 160.911484,150.849213 
	C149.071640,148.685638 137.525726,145.879425 128.681686,137.276291 
	C128.816635,137.150696 128.951569,137.025085 129.821091,136.978378 
z"/>
<path fill="#62A0D4" opacity="1.000000" stroke="none" 
	d="
M128.266388,137.641495 
	C137.525726,145.879425 149.071640,148.685638 160.911484,150.849213 
	C140.281998,154.737411 121.768906,150.628052 105.735039,137.162354 
	C87.783577,122.086197 80.133812,102.237221 82.288292,79.464523 
	C85.211708,48.564209 108.037369,25.051952 137.290375,20.063196 
	C160.365417,16.128016 180.693848,21.970581 197.149109,38.890236 
	C207.194717,49.219372 212.744370,61.731915 215.196716,76.218239 
	C219.470703,101.465233 205.219330,127.044022 183.981369,137.804398 
	C166.042282,146.893402 147.735046,146.448166 129.339478,136.667816 
	C128.401016,136.302338 127.944160,136.247437 127.487305,136.192535 
	C127.746994,136.675522 128.006699,137.158508 128.266388,137.641495 
M102.045021,80.837891 
	C102.335892,83.603889 102.562485,86.378410 102.928345,89.134453 
	C104.885513,103.877716 113.661613,113.232635 126.786240,119.054466 
	C136.217087,123.237823 145.978485,123.843575 156.126770,122.121170 
	C177.259308,118.534500 193.217728,108.128632 202.371109,88.275932 
	C211.195572,69.136604 203.280823,50.546303 188.059509,40.785042 
	C177.549728,34.045242 165.686737,32.178646 152.837158,33.718903 
	C130.524704,36.393463 105.122879,54.896561 102.045021,80.837891 
z"/>
<path fill="#000000" opacity="1.000000" stroke="none" 
	d="
M102.222458,80.432465 
	C105.122879,54.896561 130.524704,36.393463 152.837158,33.718903 
	C165.686737,32.178646 177.549728,34.045242 188.059509,40.785042 
	C203.280823,50.546303 211.195572,69.136604 202.371109,88.275932 
	C193.217728,108.128632 177.259308,118.534500 156.126770,122.121170 
	C145.978485,123.843575 136.217087,123.237823 126.786240,119.054466 
	C113.661613,113.232635 104.885513,103.877716 102.928345,89.134453 
	C102.562485,86.378410 102.335892,83.603889 102.222458,80.432465 
M197.995026,54.002438 
	C197.995026,54.002438 198.051605,53.994106 197.895020,53.480228 
	C197.602844,53.285717 197.310669,53.091206 197.017609,52.975098 
	C197.017609,52.975098 197.096008,52.974247 197.001129,52.243488 
	C193.327713,47.331985 191.363541,46.957787 184.180145,50.011780 
	C178.342026,54.289112 177.385986,58.507557 180.115738,67.402824 
	C183.795120,79.392624 183.025238,90.922638 175.788467,101.448532 
	C170.047897,109.798195 161.554657,114.503334 152.277100,117.962334 
	C150.785675,118.518387 149.309967,119.116570 147.826996,119.695282 
	C147.984375,120.158798 148.141754,120.622307 148.299118,121.085823 
	C150.639557,120.715759 152.988052,120.390320 155.319107,119.968468 
	C171.841370,116.978416 186.165573,110.047607 194.994858,95.186821 
	C198.632034,89.065002 200.293472,81.769325 202.994034,74.120575 
	C201.668991,68.038429 200.343948,61.956276 198.962769,55.434399 
	C198.962769,55.434399 198.779999,55.030537 198.841522,54.514759 
	C198.564301,54.325569 198.287064,54.136379 197.995026,54.002438 
M155.059204,76.228828 
	C155.375610,77.818703 155.589554,79.437416 156.027374,80.993126 
	C157.416412,85.928925 159.331680,90.375496 164.468826,92.816055 
	C168.421890,94.694084 171.998581,94.196648 174.822357,91.424904 
	C177.965378,88.339783 178.064850,84.062630 175.684006,80.566849 
	C169.261948,71.137383 166.163483,61.461647 172.193466,50.407265 
	C160.952133,52.648922 155.169525,65.627617 155.059204,76.228828 
M157.380768,102.774521 
	C161.548981,106.297874 166.743057,104.090904 172.568283,96.014221 
	C169.191284,96.014221 166.109848,96.156082 163.046631,95.980408 
	C158.640060,95.727699 156.485062,97.462921 157.380768,102.774521 
z"/>
<path fill="#000000" opacity="1.000000" stroke="none" 
	d="
M128.474030,137.458893 
	C128.006699,137.158508 127.746994,136.675522 127.487305,136.192535 
	C127.944160,136.247437 128.401016,136.302338 128.972168,136.628357 
	C128.951569,137.025085 128.816635,137.150696 128.474030,137.458893 
z"/>
<path fill="#C8DB81" opacity="1.000000" stroke="none" 
	d="
M198.779999,55.030537 
	C198.779999,55.030537 198.962769,55.434399 198.988770,56.074158 
	C200.294357,62.811806 201.573959,68.909691 202.853561,75.007576 
	C200.293472,81.769325 198.632034,89.065002 194.994858,95.186821 
	C186.165573,110.047607 171.841370,116.978416 155.319107,119.968468 
	C152.988052,120.390320 150.639557,120.715759 148.299118,121.085823 
	C148.141754,120.622307 147.984375,120.158798 147.826996,119.695282 
	C149.309967,119.116570 150.785675,118.518387 152.277100,117.962334 
	C161.554657,114.503334 170.047897,109.798195 175.788467,101.448532 
	C183.025238,90.922638 183.795120,79.392624 180.115738,67.402824 
	C177.385986,58.507557 178.342026,54.289112 184.985504,49.984005 
	C189.559235,50.962234 193.327621,51.968243 197.096008,52.974247 
	C197.096008,52.974247 197.017609,52.975098 197.149445,53.155190 
	C197.538040,53.554890 197.794830,53.774498 198.051605,53.994106 
	C198.051605,53.994106 197.995026,54.002438 198.094818,54.179131 
	C198.349625,54.615517 198.544754,54.840424 198.779999,55.030537 
z"/>
<path fill="#A6A6AB" opacity="1.000000" stroke="none" 
	d="
M155.051865,75.790848 
	C155.169525,65.627617 160.952133,52.648922 172.193466,50.407265 
	C166.163483,61.461647 169.261948,71.137383 175.684006,80.566849 
	C178.064850,84.062630 177.965378,88.339783 174.822357,91.424904 
	C171.998581,94.196648 168.421890,94.694084 164.468826,92.816055 
	C159.331680,90.375496 157.416412,85.928925 156.027374,80.993126 
	C155.589554,79.437416 155.375610,77.818703 155.051865,75.790848 
z"/>
<path fill="#A1A2A5" opacity="1.000000" stroke="none" 
	d="
M157.230957,102.402115 
	C156.485062,97.462921 158.640060,95.727699 163.046631,95.980408 
	C166.109848,96.156082 169.191284,96.014221 172.568283,96.014221 
	C166.743057,104.090904 161.548981,106.297874 157.230957,102.402115 
z"/>
<path fill="#BFCD92" opacity="1.000000" stroke="none" 
	d="
M202.923798,74.564072 
	C201.573959,68.909691 200.294357,62.811806 199.016846,56.294022 
	C200.343948,61.956276 201.668991,68.038429 202.923798,74.564072 
z"/>
<path fill="#BFCD92" opacity="1.000000" stroke="none" 
	d="
M197.048569,52.608868 
	C193.327621,51.968243 189.559235,50.962234 185.343048,49.946693 
	C191.363541,46.957787 193.327713,47.331985 197.048569,52.608868 
z"/>
<path fill="#BFCD92" opacity="1.000000" stroke="none" 
	d="
M197.973312,53.737167 
	C197.794830,53.774498 197.538040,53.554890 197.149872,53.115990 
	C197.310669,53.091206 197.602844,53.285717 197.973312,53.737167 
z"/>
<path fill="#BFCD92" opacity="1.000000" stroke="none" 
	d="
M198.810760,54.772648 
	C198.544754,54.840424 198.349625,54.615517 198.102203,54.151505 
	C198.287064,54.136379 198.564301,54.325569 198.810760,54.772648 
z"/>
</svg>