<?xml version="1.0" encoding="UTF-8"?>
<svg version="1.1" xmlns="http://www.w3.org/2000/svg" width="300" height="168">
<path d="M0 0 C13.86956278 11.12332226 23.54298581 26.14727226 26.10351562 43.91259766 C27.57832417 61.11869737 24.8938109 77.30086287 13.79882812 91.09228516 C4.24860435 102.23421289 -7.82261147 110.64069851 -22.65039062 112.78369141 C-33.92765971 113.58148551 -44.05421188 113.07445174 -54.65039062 108.78369141 C-55.42511719 108.47560547 -56.19984375 108.16751953 -56.99804688 107.85009766 C-58.56503364 107.19900375 -60.11180197 106.49931404 -61.65039062 105.78369141 C-49.86423569 114.0432803 -38.87454315 117.18452633 -24.65039062 118.78369141 C-28.64149 121.44442432 -31.94445316 121.47534605 -36.65039062 121.78369141 C-37.40449219 121.83783203 -38.15859375 121.89197266 -38.93554688 121.94775391 C-55.47024963 122.55503848 -70.7403907 116.78217037 -83.65039062 106.78369141 C-84.26398438 106.34669922 -84.87757812 105.90970703 -85.50976562 105.45947266 C-97.71026653 96.14120017 -105.29262619 79.60297354 -107.65039062 64.78369141 C-109.54064569 46.52945141 -105.95936004 28.74750401 -94.51367188 14.03759766 C-92.31296805 11.51427756 -90.02960317 9.13858491 -87.65039062 6.78369141 C-86.65458984 5.73761719 -86.65458984 5.73761719 -85.63867188 4.67041016 C-63.24512585 -17.29659213 -24.88407696 -18.33912299 0 0 Z M-76.63476562 23.93212891 C-84.39771754 33.12160617 -88.12963152 43.7591016 -87.65039062 55.78369141 C-86.13313575 67.51712908 -80.88530741 75.5438613 -71.93164062 83.06494141 C-60.24498204 91.86995815 -46.24655543 93.06772448 -32.07226562 91.35009766 C-16.98774673 88.62744346 -2.7692127 80.87511723 6.78710938 68.72119141 C13.59486536 58.80299519 17.65197013 47.93311157 16.34960938 35.78369141 C14.31764805 26.19094378 9.22596505 16.7480332 1.34960938 10.78369141 C-25.71430369 -5.00359122 -55.79647915 1.37099197 -76.63476562 23.93212891 Z M-65.65039062 102.78369141 C-65.32039063 103.44369141 -64.99039063 104.10369141 -64.65039062 104.78369141 C-63.99039063 104.45369141 -63.33039063 104.12369141 -62.65039062 103.78369141 C-63.64039063 103.45369141 -64.63039062 103.12369141 -65.65039062 102.78369141 Z " fill="#61A1D5" transform="translate(188.650390625,30.21630859375)"/>
<path d="M0 0 C5.97896284 5.64679824 7.92867293 13.55477965 8.3125 21.5 C8.13734406 34.57831003 1.72425451 46.63492056 -6.95703125 56.12109375 C-10.89231269 59.74034876 -15.35016158 62.39901742 -20 65 C-20.68449219 65.39058594 -21.36898437 65.78117187 -22.07421875 66.18359375 C-27.23500445 68.78933427 -32.78184398 70.09397283 -38.375 71.4375 C-39.17301025 71.63819092 -39.97102051 71.83888184 -40.79321289 72.0456543 C-43.0859375 72.55859375 -43.0859375 72.55859375 -47 73 C-48.74462891 71.52758789 -48.74462891 71.52758789 -50 70 C-49.17757812 69.78085938 -48.35515625 69.56171875 -47.5078125 69.3359375 C-34.06536805 65.51741402 -25.2786236 60.00855668 -17.33203125 48.4765625 C-14.30756824 42.85336735 -13.67770765 37.28943464 -13.75 31 C-13.74226563 30.32710937 -13.73453125 29.65421875 -13.7265625 28.9609375 C-13.74451247 24.31189638 -14.65708601 20.42432905 -16 16 C-16.60292425 11.16258452 -16.73465208 7.30604814 -14.3125 3 C-9.61776739 -1.06030929 -6.03730529 -1.64653781 0 0 Z " fill="#C9DC81" transform="translate(194,48)"/>
<path d="M0 0 C-0.928125 0.53625 -1.85625 1.0725 -2.8125 1.625 C-6.91974953 4.68530357 -8.42073072 7.09292641 -9.421875 12.1171875 C-10.03768282 19.34108687 -7.02755337 24.53549763 -3.53125 30.60546875 C-1.82097163 34.39687667 -1.64103792 36.88689287 -2 41 C-3 43.375 -3 43.375 -5 45 C-9.83869383 46.2691656 -11.79891299 46.5892125 -16.3125 44.375 C-21.95380313 39.38966235 -23.648546 33.5731157 -24.375 26.1875 C-24.1162761 18.3192497 -20.3735359 11.41321356 -15.0703125 5.765625 C-10.86440046 2.17869624 -5.52809917 -1.84269972 0 0 Z " fill="#A5A6AB" transform="translate(178,47)"/>
<path d="M0 0 C1.32 0 2.64 0 4 0 C4 1.65 4 3.3 4 5 C4.70125 5.268125 5.4025 5.53625 6.125 5.8125 C9 7 9 7 11.9375 8.5625 C15.02287228 10.01073597 17.63234459 10.59908864 21 11 C21.33 9.35 21.66 7.7 22 6 C19.69 4.35 17.38 2.7 15 1 C18.82172078 1 20.34349313 2.28540702 23.5625 4.3125 C33.35080539 10.12687063 42.77785397 11.62552966 54 13 C50.00890062 15.66073292 46.70593747 15.69165464 42 16 C41.24589844 16.05414063 40.49179688 16.10828125 39.71484375 16.1640625 C24.9082538 16.70787716 9.61255207 12.23725733 -2 3 C-1.34 2.67 -0.68 2.34 0 2 C0 1.34 0 0.68 0 0 Z " fill="#5D9ED1" transform="translate(110,136)"/>
<path d="M0 0 C0.66 0.99 1.32 1.98 2 3 C0.33333333 4.66666667 -1.33333333 6.33333333 -3 8 C-2.67 8.99 -2.34 9.98 -2 11 C-2 11.33 -2 11.66 -2 12 C-1.01 12 -0.02 12 1 12 C1 11.01 1 10.02 1 9 C2.8125 7.9375 2.8125 7.9375 5 7 C5.99 7.33 6.98 7.66 8 8 C-0.62935807 15.19525272 -9.65382444 18.91531512 -20.5 21.5 C-21.29003418 21.69674316 -22.08006836 21.89348633 -22.89404297 22.09619141 C-25.15625 22.59375 -25.15625 22.59375 -29 23 C-30.74023438 21.52539062 -30.74023438 21.52539062 -32 20 C-31.17757812 19.78085938 -30.35515625 19.56171875 -29.5078125 19.3359375 C-16.7540587 15.7130467 -8.13836661 10.5497345 0 0 Z " fill="#C9DA83" transform="translate(176,98)"/>
<path d="M0 0 C1.27617187 0.02320312 2.55234375 0.04640625 3.8671875 0.0703125 C5.78917969 0.09738281 5.78917969 0.09738281 7.75 0.125 C9.23113281 0.15980469 9.23113281 0.15980469 10.7421875 0.1953125 C7.48072514 4.51195386 4.98416121 7.29927946 -0.2578125 9.1953125 C-2.50281325 8.95260972 -3.66266242 8.79046258 -5.2578125 7.1953125 C-5.4453125 4.7578125 -5.4453125 4.7578125 -5.2578125 2.1953125 C-3.2578125 0.1953125 -3.2578125 0.1953125 0 0 Z " fill="#A4A5A8" transform="translate(161.2578125,94.8046875)"/>
<path d="M0 0 C-2.06049855 0.81756238 -4.12348853 1.62884734 -6.1875 2.4375 C-7.33605469 2.88996094 -8.48460937 3.34242188 -9.66796875 3.80859375 C-15.64657643 5.94631396 -21.02205483 6.18260471 -27.3125 6.1875 C-28.53743164 6.20586914 -28.53743164 6.20586914 -29.78710938 6.22460938 C-35.19431365 6.23753496 -39.80627644 5.51209673 -45 4 C-43.68 3.34 -42.36 2.68 -41 2 C-40.67 2.66 -40.34 3.32 -40 4 C-38.73542969 3.91621094 -37.47085938 3.83242187 -36.16796875 3.74609375 C-34.5078316 3.64292138 -32.84767425 3.54007369 -31.1875 3.4375 C-30.35412109 3.38142578 -29.52074219 3.32535156 -28.66210938 3.26757812 C-27.85966797 3.21923828 -27.05722656 3.17089844 -26.23046875 3.12109375 C-25.49207764 3.0739624 -24.75368652 3.02683105 -23.99291992 2.97827148 C-22 3 -22 3 -19 4 C-18.67 3.34 -18.34 2.68 -18 2 C-18 2.66 -18 3.32 -18 4 C-17.46375 3.690625 -16.9275 3.38125 -16.375 3.0625 C-13.60124647 1.82161026 -10.98966629 1.49827771 -8 1 C-6.948125 0.443125 -6.948125 0.443125 -5.875 -0.125 C-3.49265433 -1.23676131 -2.45720457 -0.72390674 0 0 Z " fill="#6898C1" transform="translate(184,137)"/>
<path d="M0 0 C2 1 2 1 3 2 C4.91424457 1.8981629 4.91424457 1.8981629 7.0625 1.5625 C9.0115625 1.2840625 9.0115625 1.2840625 11 1 C7.16402256 4.60220596 2.51442569 5.51726546 -2.4375 6.8125 C-3.7069043 7.17504883 -3.7069043 7.17504883 -5.00195312 7.54492188 C-11.26001721 9.20622471 -11.26001721 9.20622471 -15.09765625 8.13671875 C-15.72542969 7.76160156 -16.35320312 7.38648437 -17 7 C-17 6.67 -17 6.34 -17 6 C-16.10796875 5.73445313 -15.2159375 5.46890625 -14.296875 5.1953125 C-13.12640625 4.84210938 -11.9559375 4.48890625 -10.75 4.125 C-9.58984375 3.77695313 -8.4296875 3.42890625 -7.234375 3.0703125 C-4.09398948 2.12654671 -4.09398948 2.12654671 -1.703125 0.8046875 C-1.14109375 0.53914063 -0.5790625 0.27359375 0 0 Z " fill="#BDCE80" transform="translate(161,112)"/>
<path d="M0 0 C3.96074927 0.56582132 6.72259306 1.69695729 10 4 C12.29013653 7.4352048 12.17842973 8.985331 12 13 C10.02 13.99 10.02 13.99 8 15 C7.87625 14.236875 7.7525 13.47375 7.625 12.6875 C6.75449803 8.94434152 5.10670961 7.10416891 2.375 4.4375 C0 2 0 2 0 0 Z " fill="#5CA4D9" transform="translate(191,38)"/>
<path d="M0 0 C1.32 0 2.64 0 4 0 C4 1.65 4 3.3 4 5 C4.70125 5.268125 5.4025 5.53625 6.125 5.8125 C9 7 9 7 11.625 8.4375 C15.64402925 10.29816169 19.56497362 11.24879087 23.875 12.1875 C24.65875 12.36474609 25.4425 12.54199219 26.25 12.72460938 C28.16511451 13.15667789 30.08235308 13.57931354 32 14 C32 14.33 32 14.66 32 15 C20.62004767 15.37548066 9.34259521 11.48791334 0 5 C-0.66 4.01 -1.32 3.02 -2 2 C-1.34 2 -0.68 2 0 2 C0 1.34 0 0.68 0 0 Z " fill="#6596BE" transform="translate(110,136)"/>
<path d="M0 0 C0.33 0.99 0.66 1.98 1 3 C0.45730469 3.47050781 -0.08539063 3.94101562 -0.64453125 4.42578125 C-1.35996094 5.04839844 -2.07539062 5.67101563 -2.8125 6.3125 C-3.52019531 6.92738281 -4.22789063 7.54226562 -4.95703125 8.17578125 C-6.70136739 9.73334335 -8.36778041 11.32658875 -10 13 C-8.35 13 -6.7 13 -5 13 C-5.99 14.485 -5.99 14.485 -7 16 C-7.66 15.67 -8.32 15.34 -9 15 C-9.33 15.99 -9.66 16.98 -10 18 C-10.66 18 -11.32 18 -12 18 C-12.33 19.32 -12.66 20.64 -13 22 C-13.99 21.67 -14.98 21.34 -16 21 C-16.33 21.99 -16.66 22.98 -17 24 C-17.33 23.34 -17.66 22.68 -18 22 C-13.82152776 13.15972478 -7.02649029 6.56906958 0 0 Z " fill="#649CCA" transform="translate(106,32)"/>
<path d="M0 0 C0.33 0 0.66 0 1 0 C1 1.65 1 3.3 1 5 C1.66 5 2.32 5 3 5 C2.67 7.31 2.34 9.62 2 12 C1.34 11.34 0.68 10.68 0 10 C-0.01981934 10.56509277 -0.03963867 11.13018555 -0.06005859 11.71240234 C-0.15518236 14.26707997 -0.26491058 16.82092541 -0.375 19.375 C-0.4059375 20.26445313 -0.436875 21.15390625 -0.46875 22.0703125 C-0.50742188 22.92109375 -0.54609375 23.771875 -0.5859375 24.6484375 C-0.6173584 25.43395996 -0.6487793 26.21948242 -0.68115234 27.02880859 C-1 29 -1 29 -3 31 C-3.30384048 20.24179649 -3.46861792 10.34391414 0 0 Z " fill="#689CC5" transform="translate(84,64)"/>
<path d="M0 0 C0.92039063 0.33773437 1.84078125 0.67546875 2.7890625 1.0234375 C11.5215114 4.1324634 19.74196633 6.04423998 29 7 C22.75346867 11.16435422 14.28231291 10.13682843 7 10 C7 9.67 7 9.34 7 9 C11.455 8.505 11.455 8.505 16 8 C10.72 6.02 5.44 4.04 0 2 C0 1.34 0 0.68 0 0 Z " fill="#5C8CB5" transform="translate(135,142)"/>
<path d="M0 0 C0.8125 1.625 0.8125 1.625 1 4 C-2.73831776 9.60747664 -2.73831776 9.60747664 -6.8125 10.875 C-7.534375 10.91625 -8.25625 10.9575 -9 11 C-9.103125 11.61875 -9.20625 12.2375 -9.3125 12.875 C-10 15 -10 15 -13 17 C-13.66 16.01 -14.32 15.02 -15 14 C-14.33613281 13.49210937 -13.67226562 12.98421875 -12.98828125 12.4609375 C-8.07221335 8.62855756 -3.74458463 4.99277951 0 0 Z " fill="#66A1C5" transform="translate(196,97)"/>
<path d="M0 0 C3.94139078 1.66751148 6.7892812 4.22710649 10 7 C7 7 7 7 4 5 C1.84725052 5.30840599 1.84725052 5.30840599 0 6 C0 4 0 2 0 0 Z M-13 4 C-11.03407469 4.23324538 -9.06841763 4.46946831 -7.10546875 4.7265625 C-5.44778402 4.94184623 -3.78681759 5.13186765 -2.125 5.3125 C0 6 0 6 1.1328125 8.04296875 C1.41898438 8.68878906 1.70515625 9.33460937 2 10 C-3 8.33333333 -8 6.66666667 -13 5 C-13 4.67 -13 4.34 -13 4 Z " fill="#6196C1" transform="translate(185,29)"/>
<path d="M0 0 C3.04817994 6.09635988 3.13872325 11.88688349 3.125 18.625 C3.12757813 19.89601563 3.13015625 21.16703125 3.1328125 22.4765625 C3.02020097 25.46408027 2.69908062 28.10380888 2 31 C1.67 31 1.34 31 1 31 C1.01160156 30.443125 1.02320313 29.88625 1.03515625 29.3125 C1.33035107 20.41006527 1.33035107 20.41006527 -1 12 C-0.34 12 0.32 12 1 12 C0.67 8.04 0.34 4.08 0 0 Z " fill="#6495BC" transform="translate(212,66)"/>
<path d="M0 0 C0.33 0 0.66 0 1 0 C1.2276125 3.20726702 1.42860225 6.4156823 1.625 9.625 C1.68945312 10.52863281 1.75390625 11.43226562 1.8203125 12.36328125 C2.11417457 17.39566926 2.05774314 21.27190317 0 26 C-1.32 26 -2.64 26 -4 26 C-3.79503906 25.37996094 -3.59007812 24.75992188 -3.37890625 24.12109375 C-0.92128376 16.04268871 -0.32851379 8.39409373 0 0 Z " fill="#CBD88F" transform="translate(181,72)"/>
<path d="M0 0 C4.45580993 3.85670943 5.74608948 9.70445306 6.1875 15.43359375 C6.1875 17.29011483 6.10298126 19.1463373 6 21 C5.67 21 5.34 21 5 21 C4.87625 19.9275 4.7525 18.855 4.625 17.75 C4.10280215 14.6168129 3.70882871 12.61350274 2 10 C1.34 9.67 0.68 9.34 0 9 C0 6 0 3 0 0 Z " fill="#C9D994" transform="translate(196,52)"/>
<path d="M0 0 C1.27617187 0.02320312 2.55234375 0.04640625 3.8671875 0.0703125 C5.78917969 0.09738281 5.78917969 0.09738281 7.75 0.125 C9.23113281 0.15980469 9.23113281 0.15980469 10.7421875 0.1953125 C9.0921875 2.1753125 7.4421875 4.1553125 5.7421875 6.1953125 C4.0921875 5.8653125 2.4421875 5.5353125 0.7421875 5.1953125 C1.7321875 4.8653125 2.7221875 4.5353125 3.7421875 4.1953125 C3.7421875 3.5353125 3.7421875 2.8753125 3.7421875 2.1953125 C1.7621875 2.1953125 -0.2178125 2.1953125 -2.2578125 2.1953125 C-2.9178125 3.8453125 -3.5778125 5.4953125 -4.2578125 7.1953125 C-4.5878125 7.1953125 -4.9178125 7.1953125 -5.2578125 7.1953125 C-5.3828125 4.8203125 -5.3828125 4.8203125 -5.2578125 2.1953125 C-3.2578125 0.1953125 -3.2578125 0.1953125 0 0 Z " fill="#9D9EA0" transform="translate(161.2578125,94.8046875)"/>
<path d="M0 0 C0.99 0 1.98 0 3 0 C3 0.99 3 1.98 3 3 C3.66 3 4.32 3 5 3 C7.09230769 7.43076923 7.09230769 7.43076923 6.625 10.3125 C6.41875 10.869375 6.2125 11.42625 6 12 C3.34930567 9.52601863 1.28384156 7.42357749 0 4 C0 2.68 0 1.36 0 0 Z " fill="#63A2D9" transform="translate(202,52)"/>
<path d="M0 0 C0.66 0 1.32 0 2 0 C1.34 5.28 0.68 10.56 0 16 C-0.66 16 -1.32 16 -2 16 C-3.125 9.25 -3.125 9.25 -2 7 C-2.66 6.67 -3.32 6.34 -4 6 C-2.68 6 -1.36 6 0 6 C0 4.02 0 2.04 0 0 Z " fill="#639BC9" transform="translate(101,70)"/>
<path d="M0 0 C0.33 0.99 0.66 1.98 1 3 C-1.3125 5.0625 -1.3125 5.0625 -4 7 C-4.99 6.67 -5.98 6.34 -7 6 C-6.67 4.35 -6.34 2.7 -6 1 C-3 0 -3 0 0 0 Z " fill="#CEDE93" transform="translate(188,99)"/>
<path d="M0 0 C0.66 0.99 1.32 1.98 2 3 C2.66 2.67 3.32 2.34 4 2 C4.33 2.99 4.66 3.98 5 5 C3.33388095 5.042721 1.66617115 5.04063832 0 5 C-0.33 4.67 -0.66 4.34 -1 4 C-2.093125 4.04125 -3.18625 4.0825 -4.3125 4.125 C-8.15657758 3.99469229 -9.29862359 3.59332136 -12 1 C-9.45985855 0.92944052 -7.32486539 0.90445136 -4.875 1.625 C-4.25625 1.74875 -3.6375 1.8725 -3 2 C-2.01 1.34 -1.02 0.68 0 0 Z " fill="#659CCE" transform="translate(144,136)"/>
<path d="M0 0 C2.12038635 2.61514317 4.13091744 5.19637616 6 8 C3.69 8.33 1.38 8.66 -1 9 C-1.33 8.34 -1.66 7.68 -2 7 C-1.3507041 5.65812182 -0.68268138 4.32520503 0 3 C0 2.01 0 1.02 0 0 Z " fill="#619AC9" transform="translate(105,100)"/>
<path d="M0 0 C0 0.33 0 0.66 0 1 C-1.59880813 1.41694996 -3.20441261 1.80790856 -4.8125 2.1875 C-5.70582031 2.40792969 -6.59914062 2.62835938 -7.51953125 2.85546875 C-10 3 -10 3 -11.82421875 1.55078125 C-12.21222656 1.03902344 -12.60023438 0.52726562 -13 0 C-4.57142857 -2.57142857 -4.57142857 -2.57142857 0 0 Z " fill="#B5C598" transform="translate(157,118)"/>
<path d="M0 0 C3.12270126 2.51830747 3.94523098 3.7261549 4.75 7.75 C4.8325 8.8225 4.915 9.895 5 11 C4.67 10.01 4.34 9.02 4 8 C3.34 8 2.68 8 2 8 C0.3125 6.25 0.3125 6.25 -1 4 C-0.6875 1.75 -0.6875 1.75 0 0 Z " fill="#5C9DC6" transform="translate(203,47)"/>
<path d="M0 0 C-1.28716647 1.00578589 -2.57988658 2.00446798 -3.875 3 C-4.95394531 3.8353125 -4.95394531 3.8353125 -6.0546875 4.6875 C-8 6 -8 6 -10 6 C-10 5.34 -10 4.68 -10 4 C-9.01 4 -8.02 4 -7 4 C-7 3.01 -7 2.02 -7 1 C-3.375 -1.125 -3.375 -1.125 0 0 Z " fill="#BECE89" transform="translate(184,106)"/>
<path d="M0 0 C-6.45 4.09326923 -6.45 4.09326923 -9.234375 3.62109375 C-9.81703125 3.41613281 -10.3996875 3.21117187 -11 3 C-9.73581754 2.30034557 -8.46334598 1.61565237 -7.1875 0.9375 C-6.47980469 0.55464844 -5.77210938 0.17179687 -5.04296875 -0.22265625 C-3 -1 -3 -1 0 0 Z " fill="#939699" transform="translate(178,47)"/>
<path d="M0 0 C0.99 0 1.98 0 3 0 C3 0.99 3 1.98 3 3 C3.99 3 4.98 3 6 3 C6.33 3.99 6.66 4.98 7 6 C6.01 6 5.02 6 4 6 C0 1.54285714 0 1.54285714 0 0 Z " fill="#48B9DA" transform="translate(97,128)"/>
<path d="M0 0 C1.32 0.33 2.64 0.66 4 1 C1.03 3.475 1.03 3.475 -2 6 C-2.66 5.67 -3.32 5.34 -4 5 C-3.67 4.34 -3.34 3.68 -3 3 C-2.34 3 -1.68 3 -1 3 C-0.67 2.01 -0.34 1.02 0 0 Z " fill="#6698C0" transform="translate(191,128)"/>
<path d="M0 0 C0.99 0.495 0.99 0.495 2 1 C2 1.66 2 2.32 2 3 C2.99 3.33 3.98 3.66 5 4 C5 5.65 5 7.3 5 9 C1.9083091 6.47043472 1.09068668 3.77545388 0 0 Z " fill="#669DC5" transform="translate(87,112)"/>
<path d="M0 0 C0.33 0.66 0.66 1.32 1 2 C1.66 2 2.32 2 3 2 C2.67 2.99 2.34 3.98 2 5 C1.01 4.67 0.02 4.34 -1 4 C-1.33 4.99 -1.66 5.98 -2 7 C-2.33 6.34 -2.66 5.68 -3 5 C-1.5625 2.375 -1.5625 2.375 0 0 Z " fill="#6B9CC5" transform="translate(91,49)"/>
<path d="M0 0 C1.65 0.33 3.3 0.66 5 1 C5 2.32 5 3.64 5 5 C2.49642139 4.1654738 0.33214148 3.20628008 -2 2 C-1.34 2 -0.68 2 0 2 C0 1.34 0 0.68 0 0 Z " fill="#64A5DB" transform="translate(137,145)"/>
<path d="M0 0 C-2 2 -2 2 -3.9453125 2.1953125 C-5.96354167 2.13020833 -7.98177083 2.06510417 -10 2 C-6.16991045 -0.55339303 -4.41711378 -1.47237126 0 0 Z " fill="#6697B9" transform="translate(170,119)"/>
<path d="M0 0 C0.66 0.99 1.32 1.98 2 3 C-0.05233685 5.2477975 -1.00667261 6.0022242 -4 7 C-2.79618552 4.50638429 -1.54571278 2.31856917 0 0 Z " fill="#CEDA93" transform="translate(176,98)"/>
<path d="M0 0 C2.50037734 2.17424117 3.43628586 3.73045798 4 7 C2.68 7 1.36 7 0 7 C0 4.69 0 2.38 0 0 Z " fill="#C1CF8A" transform="translate(196,52)"/>
<path d="M0 0 C0.99 0.66 1.98 1.32 3 2 C2.01 2.33 1.02 2.66 0 3 C0 3.66 0 4.32 0 5 C0.66 5.33 1.32 5.66 2 6 C0.0625 5.6875 0.0625 5.6875 -2 5 C-2.33 4.01 -2.66 3.02 -3 2 C-2.01 2 -1.02 2 0 2 C0 1.34 0 0.68 0 0 Z " fill="#61A5DC" transform="translate(188,33)"/>
<path d="M0 0 C2 1 2 1 2 1 Z " fill="#BFBFBF" transform="translate(164,148)"/>
</svg>
